<svg width="160" height="160" viewBox="0 0 160 160" fill="none" xmlns="http://www.w3.org/2000/svg">
<path opacity="0.2" d="M140 80C140 91.8669 136.481 103.467 129.888 113.334C123.295 123.201 113.925 130.892 102.961 135.433C91.9975 139.974 79.9335 141.162 68.2946 138.847C56.6558 136.532 45.9648 130.818 37.5736 122.426C29.1825 114.035 23.468 103.344 21.1529 91.7054C18.8378 80.0666 20.026 68.0026 24.5673 57.039C29.1085 46.0754 36.7989 36.7047 46.6658 30.1118C56.5328 23.5189 68.1331 20 80 20C95.913 20 111.174 26.3214 122.426 37.5736C133.679 48.8258 140 64.087 140 80Z" fill="#00FFBE" fill-opacity="0.83"/>
<path d="M45.0001 80C45.0359 93.1155 42.0053 106.058 36.1501 117.794C35.8706 118.402 35.4718 118.948 34.9772 119.4C34.4827 119.851 33.9025 120.199 33.2711 120.422C32.6397 120.644 31.97 120.738 31.3017 120.697C30.6333 120.657 29.98 120.482 29.3805 120.184C28.7809 119.886 28.2473 119.47 27.8114 118.962C27.3754 118.454 27.046 117.863 26.8427 117.225C26.6393 116.587 26.5662 115.915 26.6276 115.248C26.689 114.581 26.8837 113.934 27.2001 113.344C32.3626 102.989 35.0337 91.5705 35.0001 80C34.9884 73.2528 36.4998 66.5899 39.4216 60.5081C42.3435 54.4263 46.6004 49.0825 51.8751 44.875C52.9103 44.0462 54.2323 43.6626 55.5503 43.8085C56.8684 43.9544 58.0744 44.618 58.9032 45.6531C59.732 46.6883 60.1157 48.0103 59.9698 49.3283C59.8238 50.6464 59.1603 51.8524 58.1251 52.6813C54.0216 55.9528 50.71 60.1088 48.4374 64.8391C46.1647 69.5695 44.9897 74.752 45.0001 80ZM80.0001 75C78.674 75 77.4023 75.5268 76.4646 76.4645C75.5269 77.4021 75.0001 78.6739 75.0001 80C74.9991 99.48 70.053 118.641 60.6251 135.688C59.982 136.848 59.8261 138.216 60.1918 139.491C60.5575 140.767 61.4148 141.844 62.5751 142.487C63.7354 143.131 65.1037 143.287 66.379 142.921C67.6542 142.555 68.732 141.698 69.3751 140.538C79.6225 122.006 84.9987 101.176 85.0001 80C85.0001 78.6739 84.4733 77.4021 83.5357 76.4645C82.598 75.5268 81.3262 75 80.0001 75ZM80.0001 55C73.3697 55 67.0109 57.6339 62.3225 62.3223C57.634 67.0107 55.0001 73.3696 55.0001 80C55.0001 81.3261 55.5269 82.5979 56.4646 83.5355C57.4023 84.4732 58.674 85 60.0001 85C61.3262 85 62.598 84.4732 63.5357 83.5355C64.4733 82.5979 65.0001 81.3261 65.0001 80C65.0001 76.0218 66.5805 72.2064 69.3935 69.3934C72.2066 66.5804 76.0219 65 80.0001 65C83.9784 65 87.7937 66.5804 90.6067 69.3934C93.4198 72.2064 95.0001 76.0218 95.0001 80C95.052 99.881 90.6729 119.524 82.1814 137.5C81.9011 138.095 81.7408 138.74 81.7097 139.398C81.6787 140.055 81.7774 140.712 82.0002 141.331C82.2231 141.951 82.5657 142.52 83.0086 143.007C83.4515 143.494 83.9859 143.888 84.5814 144.169C85.1768 144.449 85.8217 144.609 86.4791 144.64C87.1365 144.671 87.7936 144.573 88.4128 144.35C89.0321 144.127 89.6013 143.784 90.0882 143.342C90.575 142.899 90.9698 142.364 91.2501 141.769C100.365 122.456 105.062 101.355 105 80C105 73.3696 102.366 67.0107 97.6778 62.3223C92.9894 57.6339 86.6305 55 80.0001 55ZM80.0001 15C62.7666 15.0182 46.2442 21.8722 34.0583 34.0582C21.8724 46.2441 15.0183 62.7665 15.0001 80C15.0094 86.2437 13.9525 92.4432 11.8751 98.3313C11.4334 99.5819 11.5065 100.957 12.0785 102.154C12.6505 103.35 13.6745 104.271 14.9251 104.712C16.1758 105.154 17.5507 105.081 18.7474 104.509C19.9441 103.937 20.8646 102.913 21.3064 101.663C23.7593 94.7039 25.0085 87.3782 25.0001 80C25.0001 65.4131 30.7947 51.4236 41.1092 41.1091C51.4237 30.7946 65.4132 25 80.0001 25C94.587 25 108.576 30.7946 118.891 41.1091C129.205 51.4236 135 65.4131 135 80C135.003 91.424 133.895 102.821 131.694 114.031C131.567 114.676 131.567 115.339 131.696 115.983C131.825 116.627 132.08 117.239 132.446 117.784C132.811 118.33 133.281 118.798 133.827 119.162C134.374 119.526 134.987 119.779 135.631 119.906C135.951 119.968 136.275 119.999 136.6 120C137.757 119.999 138.878 119.596 139.772 118.861C140.665 118.126 141.276 117.104 141.5 115.969C143.829 104.121 145.001 92.0746 145 80C144.98 62.767 138.126 46.2455 125.94 34.06C113.755 21.8744 97.2331 15.0198 80.0001 15ZM59.0001 95.1062C57.7034 94.8483 56.3572 95.1144 55.2562 95.8465C54.1552 96.5786 53.3889 97.7169 53.1251 99.0125C51.0963 108.998 47.4639 118.589 42.3689 127.413C41.7058 128.561 41.5263 129.926 41.8697 131.207C42.2131 132.488 43.0514 133.581 44.2001 134.244C45.3488 134.907 46.7139 135.086 47.995 134.743C49.2761 134.4 50.3683 133.561 51.0314 132.413C56.6619 122.655 60.6724 112.048 62.9064 101.006C63.0378 100.362 63.0409 99.6988 62.9156 99.0537C62.7904 98.4085 62.5392 97.7944 62.1764 97.2465C61.8136 96.6985 61.3463 96.2274 60.8013 95.8602C60.2563 95.4929 59.6442 95.2367 59.0001 95.1062ZM80.0001 35C78.1197 35.0004 76.2411 35.1173 74.3751 35.35C73.084 35.5438 71.9199 36.235 71.1316 37.2758C70.3433 38.3166 69.9934 39.6244 70.1566 40.9198C70.3199 42.2151 70.9833 43.3953 72.0052 44.2079C73.0271 45.0206 74.3263 45.4013 75.6251 45.2688C80.5509 44.6563 85.5505 45.097 90.2932 46.5617C95.0358 48.0264 99.4132 50.4818 103.136 53.7653C106.858 57.0488 109.841 61.0854 111.886 65.6081C113.932 70.1308 114.993 75.0363 115 80C114.999 86.4769 114.598 92.9475 113.8 99.375C113.712 100.029 113.755 100.693 113.925 101.33C114.095 101.968 114.39 102.565 114.792 103.088C115.194 103.61 115.695 104.049 116.267 104.377C116.84 104.705 117.471 104.917 118.125 105C118.333 105.025 118.541 105.037 118.75 105.037C119.966 105.035 121.139 104.589 122.051 103.784C122.962 102.979 123.548 101.869 123.7 100.662C124.543 93.82 124.961 86.9317 124.95 80.0375C124.947 68.109 120.213 56.6687 111.786 48.2257C103.36 39.7828 91.9286 35.0265 80.0001 35ZM116.206 115.156C115.57 114.992 114.908 114.954 114.257 115.046C113.607 115.137 112.981 115.356 112.415 115.69C111.849 116.024 111.354 116.466 110.959 116.991C110.564 117.516 110.276 118.114 110.113 118.75C109.2 122.306 108.144 125.875 106.988 129.375C106.565 130.629 106.656 132 107.242 133.186C107.827 134.373 108.86 135.279 110.113 135.706C110.626 135.881 111.164 135.97 111.706 135.969C112.754 135.968 113.775 135.638 114.625 135.026C115.475 134.414 116.111 133.55 116.444 132.556C117.694 128.856 118.813 125.056 119.788 121.275C119.955 120.639 119.996 119.976 119.907 119.324C119.818 118.672 119.601 118.045 119.269 117.477C118.937 116.909 118.496 116.412 117.971 116.015C117.447 115.618 116.849 115.328 116.213 115.162L116.206 115.156Z" fill="#37D5AD"/>
</svg>
